<svg xmlns="http://www.w3.org/2000/svg" xmlns:xlink="http://www.w3.org/1999/xlink" id="Layer_1" width="100%" x="0" y="0" enable-background="new 0 0 1200 200" version="1.1" viewBox="0 0 1200 200" xml:space="preserve"><path fill="#FEFEFE" stroke="none" d="M99.000000,1.000000 C466.270538,1.000000 833.541077,1.000000 1200.905762,1.000000 C1200.905762,67.592361 1200.905762,134.184891 1200.905762,201.000000 C833.970642,201.000000 466.941284,201.000000 99.515228,200.733185 C99.463341,200.048706 99.808136,199.631058 100.515656,199.198822 C108.613136,196.168213 108.488098,189.658447 108.414764,182.975586 C114.073029,179.907669 119.370766,176.861069 124.692581,173.857147 C136.479630,167.203918 148.278748,160.572098 160.388428,154.084564 C165.452225,157.872437 170.445847,159.376144 176.342712,155.947998 C186.362259,148.766556 185.540421,137.030777 174.804535,131.784790 C174.066467,131.316574 173.534149,131.059723 173.002655,130.346573 C173.002243,110.323242 173.001038,90.756210 173.263855,71.060120 C174.030411,70.643661 174.532928,70.356277 175.380554,70.032394 C185.846161,63.070107 185.981323,51.707993 175.747559,45.723309 C169.112518,42.547935 163.880981,44.786678 158.942780,48.773430 C153.755203,45.360001 148.805466,42.126686 143.689270,39.182625 C131.849625,32.369629 119.929405,25.696648 108.035645,18.518719 C108.819260,11.584930 107.870956,5.883057 100.952103,2.564004 C100.176872,1.892579 99.588432,1.446289 99.000000,1.000000 M652.363525,73.722488 C637.986206,81.770485 631.452148,95.671356 634.004517,114.015221 C635.834534,127.167236 642.627258,137.247757 655.350830,141.833374 C667.355774,146.159958 679.163269,145.976196 689.223511,135.183609 C689.223511,137.751053 689.223511,139.679886 689.223511,141.739624 C695.979370,141.739624 702.384216,141.739624 708.672363,141.739624 C708.672363,110.767014 708.672363,80.060463 708.672363,49.496048 C701.704956,49.496048 695.121033,49.496048 688.100952,49.496048 C688.100952,58.868214 688.100952,67.923805 688.100952,77.229454 C673.738708,68.832375 665.991211,68.014862 652.363525,73.722488 M436.317291,69.500183 C436.317291,93.580551 436.317291,117.660919 436.317291,141.791641 C444.163605,141.791641 451.421997,141.791641 459.068390,141.791641 C459.068390,132.181900 459.068390,122.776428 459.068390,113.424850 C466.548370,112.936813 473.705200,112.944710 480.709747,111.915916 C496.218048,109.638138 505.768799,98.165993 506.106201,82.185219 C506.467957,65.051224 498.042999,52.779736 482.017242,50.699718 C467.128204,48.767235 451.929565,49.219856 436.317322,48.600548 C436.317322,55.937290 436.317322,62.218906 436.317291,69.500183 M552.770203,110.873024 C554.800720,132.516083 574.427795,147.358612 596.221985,143.732361 C618.028442,140.104080 631.594543,119.839897 626.538940,98.447113 C622.180725,80.005531 604.461060,67.824066 585.699524,70.371788 C564.643066,73.231140 551.753845,88.718239 552.770203,110.873024 M766.318115,140.452438 C766.991699,140.968994 767.656250,141.919693 768.340210,141.933838 C774.120483,142.053482 779.904297,142.002121 785.837402,142.002121 C785.837402,118.667755 785.837402,95.763054 785.837402,72.722290 C778.901794,72.722290 772.174500,72.722290 765.167908,72.722290 C765.167908,74.874702 765.170105,76.689575 765.167603,78.504456 C765.151917,89.830696 765.209229,101.157753 765.085754,112.482826 C765.029663,117.634674 763.255554,122.004761 758.008118,124.006958 C749.105896,127.403641 742.406372,122.577972 742.201294,112.318680 C741.968384,100.663628 742.144958,89.000557 742.116272,77.341042 C742.112366,75.762611 741.949707,74.184586 741.868103,72.740379 C734.779419,72.740379 728.203125,72.740379 721.835754,72.740379 C721.835754,89.221161 721.426819,105.357445 721.982117,121.460487 C722.341797,131.892273 728.203735,139.529037 738.231873,142.584702 C748.275940,145.645203 758.316589,145.925735 766.048035,135.674118 C766.162842,137.421844 766.234375,138.512085 766.318115,140.452438 M836.597168,124.398064 C827.158142,125.816010 819.818726,121.755013 817.156921,113.641602 C814.246094,104.769096 817.768738,94.834663 825.152771,91.092316 C832.364380,87.437347 841.169556,89.939964 846.688965,97.133232 C847.324463,97.961533 848.321228,99.063492 849.175110,99.085579 C855.550476,99.250458 861.932129,99.175194 868.418579,99.175194 C865.224915,81.103035 847.751160,68.597198 828.701172,70.127197 C809.775879,71.647179 795.130249,87.815536 795.185669,107.127289 C795.239502,125.891472 809.958923,142.514023 827.843689,144.007904 C847.965759,145.688660 865.375610,133.683411 868.461121,115.603874 C863.271667,115.603874 858.140747,115.804070 853.034729,115.533974 C849.591492,115.351830 847.350220,116.276573 845.096741,119.135361 C843.291260,121.425835 839.999817,122.545006 836.597168,124.398064 M1173.791382,158.623047 C1159.903320,163.849686 1145.751587,160.515976 1139.419434,149.134155 C1136.190796,143.330612 1132.428833,143.478546 1127.401733,144.105438 C1131.985107,160.378143 1147.253906,170.325882 1165.139771,168.895050 C1182.034790,167.543503 1194.302368,156.198883 1195.107666,139.123459 C1196.048462,119.172920 1195.537354,99.153893 1195.653687,79.164566 C1195.664062,77.387489 1195.655151,75.610291 1195.655151,73.604782 C1192.483154,73.604782 1189.900757,73.604782 1186.862549,73.604782 C1186.862549,77.363991 1186.862549,80.919182 1186.862549,84.856606 C1168.481812,68.473885 1149.521851,67.636459 1134.951172,82.177895 C1121.383423,95.718452 1120.538330,117.264320 1133.123047,131.497009 C1140.241333,139.547531 1149.356445,143.645279 1160.036011,143.646942 C1170.840576,143.648605 1179.892578,139.457397 1186.754395,129.856903 C1187.326782,142.115021 1185.388794,152.191696 1173.791382,158.623047 M1009.766602,66.021431 C1006.780945,57.854053 1000.930664,52.170528 992.561523,50.993904 C981.003418,49.368938 969.235046,49.238834 957.384888,48.457157 C957.384888,80.408165 957.384888,110.987366 957.384888,141.648254 C969.049622,141.648254 980.569763,142.483963 991.915588,141.435013 C1005.847595,140.146942 1014.376221,131.839554 1015.875244,120.008720 C1017.457520,107.519913 1012.522156,98.320854 1000.935608,92.476654 C1009.699219,85.818054 1012.829529,77.320999 1009.766602,66.021431 M898.347168,142.005463 C899.783508,141.921524 901.219788,141.837570 903.147095,141.724930 C903.147095,123.713943 903.147095,106.017670 903.147095,88.037659 C906.602600,88.037659 909.543396,88.037659 912.548340,88.037659 C912.548340,82.713364 912.548340,77.692909 912.548340,72.368073 C909.237061,72.368073 906.293213,72.368073 902.777954,72.368073 C902.777954,64.520210 902.777954,56.970623 902.777954,49.406254 C895.612000,49.406254 889.024841,49.406254 881.911316,49.406254 C881.911316,57.175686 881.911316,64.726891 881.911316,72.643890 C878.285156,72.643890 875.189514,72.643890 872.072021,72.643890 C872.072021,77.965904 872.072021,82.892876 872.072021,88.194946 C875.392212,88.194946 878.476685,88.194946 882.025818,88.194946 C882.025818,106.275276 882.025818,123.982674 882.025818,142.005463 C887.455017,142.005463 892.415222,142.005463 898.347168,142.005463 M375.498718,110.964966 C381.274872,110.964966 387.050995,110.964966 392.769836,110.964966 C394.478760,92.036964 379.847900,73.825806 361.937500,71.993469 C342.387329,69.993385 324.432983,83.620148 322.033173,102.279594 C319.431641,122.507492 332.614838,140.495102 352.000702,143.168365 C369.354736,145.561432 387.972260,134.169632 390.209656,119.881645 C385.099396,118.768387 381.665955,119.816986 378.582428,125.023682 C373.197021,134.117203 360.152832,137.838654 349.832947,134.591690 C339.179962,131.239929 331.200226,121.332664 331.086853,110.964966 C345.558350,110.964966 360.028839,110.964966 375.498718,110.964966 M512.722473,103.499878 C512.722473,116.248192 512.722473,128.996506 512.722473,141.756104 C519.900757,141.756104 526.481689,141.756104 533.396362,141.756104 C533.396362,129.370102 533.329590,117.227936 533.418396,105.086914 C533.484558,96.029510 536.718567,92.457672 545.656372,91.206879 C546.948242,91.026093 548.257751,90.971443 549.711670,90.845177 C549.711670,83.917160 549.711670,77.146255 549.711670,70.102119 C542.360718,69.964088 536.530151,72.448067 532.267334,79.638710 C532.122925,76.401871 532.042175,74.593239 531.958862,72.725449 C525.493042,72.725449 519.264099,72.725449 512.722473,72.725449 C512.722473,82.871010 512.722473,92.685432 512.722473,103.499878 M250.726562,120.499802 C250.726562,127.588043 250.726562,134.676285 250.726562,141.759552 C253.895569,141.759552 256.475067,141.759552 259.363617,141.759552 C259.363617,135.538864 259.298218,129.560760 259.379272,123.584633 C259.494324,115.100128 259.240814,106.573250 260.016266,98.144669 C260.956268,87.927574 268.578796,80.685349 278.058136,79.846558 C291.690613,78.640274 301.557922,87.211166 301.954132,101.172592 C302.303619,113.486870 302.059326,125.817780 302.103577,138.141251 C302.108063,139.397736 302.293640,140.653564 302.383972,141.770966 C305.412537,141.770966 308.021484,141.770966 310.819672,141.770966 C310.819672,127.585503 311.393311,113.603813 310.661926,99.690720 C309.896423,85.128571 301.442963,75.316345 288.397186,72.540802 C277.536041,70.230057 267.667328,72.258942 259.347687,82.078888 C259.347687,70.370026 259.347687,59.954243 259.347687,49.420181 C256.318085,49.420181 253.743286,49.420181 250.726562,49.420181 C250.726562,72.945580 250.726562,96.222710 250.726562,120.499802 M1114.272217,94.317055 C1107.273315,78.731880 1093.945312,70.663971 1077.287476,71.928970 C1058.936646,73.322533 1043.501953,91.956596 1045.274048,110.578331 C1047.148315,130.274719 1065.272827,145.680740 1084.006226,143.501099 C1108.245117,140.680878 1122.181641,118.621109 1114.272217,94.317055 M213.364700,57.859600 C213.582932,59.621464 213.988205,61.383003 213.991211,63.145233 C214.032883,87.610565 214.019394,112.075989 214.019394,136.541397 C214.019394,138.302979 214.019394,140.064560 214.019394,141.782898 C217.397156,141.782898 220.163437,141.782898 223.443756,141.782898 C223.443756,113.714172 223.443756,85.871445 223.443756,57.565727 C230.701843,57.565727 237.442856,57.565727 244.198425,57.565727 C244.198425,54.520020 244.198425,51.951721 244.198425,49.446243 C226.922989,49.446243 210.012268,49.446243 193.155609,49.446243 C193.155609,52.308685 193.155609,54.879780 193.155609,57.767429 C199.786652,57.767429 206.085754,57.767429 213.364700,57.859600 M1025.737183,130.489120 C1025.737183,134.248688 1025.737183,138.008240 1025.737183,141.739975 C1028.932739,141.739975 1031.523804,141.739975 1033.928955,141.739975 C1033.928955,110.783974 1033.928955,80.087738 1033.928955,49.417572 C1031.071533,49.417572 1028.637451,49.417572 1025.737183,49.417572 C1025.737183,76.267067 1025.737183,102.880264 1025.737183,130.489120 z" opacity="1"/><path fill="#FEFEFF" stroke="none" d="M90.000000,201.000000 C60.367695,201.000000 30.735392,201.000000 1.051544,201.000000 C1.051544,134.444946 1.051544,67.889847 1.051544,1.000000 C30.353380,1.000000 59.708031,1.000000 89.404816,1.315458 C83.072723,5.574490 80.262360,11.262398 81.573540,19.016548 C75.911072,22.100536 70.608551,25.158859 65.277008,28.165724 C53.468681,34.825333 41.645771,41.459091 29.551250,47.952293 C28.198839,47.175297 27.123991,46.549408 25.782539,45.662460 C15.650993,42.271168 6.985540,47.618240 6.535843,57.113190 C6.237152,63.419785 9.561502,67.894043 16.984993,71.631210 C16.981878,91.670387 16.976288,111.251778 16.647282,130.979202 C7.705645,135.080276 4.365119,142.391647 7.734981,149.923615 C10.853134,156.892990 18.635847,159.506149 26.357981,156.030075 C27.725632,155.290680 28.778215,154.591995 30.193266,153.954346 C33.579563,155.709381 36.609245,157.393005 39.626225,159.099106 C53.718845,167.068527 67.807961,175.044159 81.909073,183.468277 C80.135918,191.730637 84.316856,196.720627 90.000000,201.000000 z" opacity="1"/><path fill="#FF3A84" stroke="none" d="M81.920319,18.967535 C80.262360,11.262398 83.072723,5.574490 89.873474,1.315458 C92.700012,1.000000 95.400032,1.000000 98.550018,1.000000 C99.588432,1.446289 100.176872,1.892579 100.790344,2.884352 C92.644341,11.758087 93.538963,18.835426 100.636009,25.357201 C100.865723,25.568287 100.952271,25.935146 100.838074,26.491375 C94.731682,29.455761 89.696182,27.652813 84.876846,23.673262 C83.812645,21.902960 82.866478,20.435247 81.920319,18.967535 z" opacity="1"/><path fill="#23AAFF" stroke="none" d="M90.449982,201.000000 C84.316856,196.720627 80.135918,191.730637 82.111656,183.206329 C83.214561,181.003021 84.125633,179.512329 85.346741,177.862213 C91.651192,173.339691 95.595985,172.826797 100.079315,176.187469 C94.155121,183.560883 92.830009,190.609512 99.789902,197.781265 C100.087189,198.087601 100.039780,198.728409 100.152939,199.213409 C99.808136,199.631058 99.463341,200.048706 99.059273,200.733185 C96.299988,201.000000 93.599968,201.000000 90.449982,201.000000 z" opacity="1"/><path fill="#030303" stroke="none" d="M652.679810,73.516205 C665.991211,68.014862 673.738708,68.832375 688.100952,77.229454 C688.100952,67.923805 688.100952,58.868214 688.100952,49.496048 C695.121033,49.496048 701.704956,49.496048 708.672363,49.496048 C708.672363,80.060463 708.672363,110.767014 708.672363,141.739624 C702.384216,141.739624 695.979370,141.739624 689.223511,141.739624 C689.223511,139.679886 689.223511,137.751053 689.223511,135.183609 C679.163269,145.976196 667.355774,146.159958 655.350830,141.833374 C642.627258,137.247757 635.834534,127.167236 634.004517,114.015221 C631.452148,95.671356 637.986206,81.770485 652.679810,73.516205 M663.345459,91.442200 C662.650635,91.895668 661.924744,92.308334 661.265686,92.808884 C654.324890,98.080040 652.168884,107.118546 655.922302,115.143829 C659.327209,122.423935 667.360352,126.228172 675.487183,124.409149 C684.048584,122.492851 689.385742,115.678993 689.308655,106.763481 C689.196472,93.787231 677.356934,86.434875 663.345459,91.442200 z" opacity="1"/><path fill="#040404" stroke="none" d="M436.317322,69.000351 C436.317322,62.218906 436.317322,55.937290 436.317322,48.600548 C451.929565,49.219856 467.128204,48.767235 482.017242,50.699718 C498.042999,52.779736 506.467957,65.051224 506.106201,82.185219 C505.768799,98.165993 496.218048,109.638138 480.709747,111.915916 C473.705200,112.944710 466.548370,112.936813 459.068390,113.424850 C459.068390,122.776428 459.068390,132.181900 459.068390,141.791641 C451.421997,141.791641 444.163605,141.791641 436.317291,141.791641 C436.317291,117.660919 436.317291,93.580551 436.317322,69.000351 M459.042816,76.592529 C459.042816,81.676300 459.042816,86.760078 459.042816,92.496399 C465.235779,92.017540 470.870483,91.951820 476.368225,91.050621 C481.653473,90.184273 483.409729,86.034721 483.476562,81.092148 C483.548706,75.755997 481.304108,72.057129 476.315277,71.166611 C470.731171,70.169815 464.972809,70.149323 459.042816,69.684608 C459.042816,72.334885 459.042816,73.978828 459.042816,76.592529 z" opacity="1"/><path fill="#030303" stroke="none" d="M552.732422,110.451035 C551.753845,88.718239 564.643066,73.231140 585.699524,70.371788 C604.461060,67.824066 622.180725,80.005531 626.538940,98.447113 C631.594543,119.839897 618.028442,140.104080 596.221985,143.732361 C574.427795,147.358612 554.800720,132.516083 552.732422,110.451035 M600.099854,93.278450 C592.681396,88.245476 584.980347,88.490974 579.119019,93.947258 C573.031433,99.614174 571.529053,108.680054 575.483154,115.887901 C579.324341,122.889999 587.007324,126.203476 594.538391,124.038132 C606.823181,120.506020 611.371033,103.341270 600.099854,93.278450 z" opacity="1"/><path fill="#050505" stroke="none" d="M766.312012,140.027374 C766.234375,138.512085 766.162842,137.421844 766.048035,135.674118 C758.316589,145.925735 748.275940,145.645203 738.231873,142.584702 C728.203735,139.529037 722.341797,131.892273 721.982117,121.460487 C721.426819,105.357445 721.835754,89.221161 721.835754,72.740379 C728.203125,72.740379 734.779419,72.740379 741.868103,72.740379 C741.949707,74.184586 742.112366,75.762611 742.116272,77.341042 C742.144958,89.000557 741.968384,100.663628 742.201294,112.318680 C742.406372,122.577972 749.105896,127.403641 758.008118,124.006958 C763.255554,122.004761 765.029663,117.634674 765.085754,112.482826 C765.209229,101.157753 765.151917,89.830696 765.167603,78.504456 C765.170105,76.689575 765.167908,74.874702 765.167908,72.722290 C772.174500,72.722290 778.901794,72.722290 785.837402,72.722290 C785.837402,95.763054 785.837402,118.667755 785.837402,142.002121 C779.904297,142.002121 774.120483,142.053482 768.340210,141.933838 C767.656250,141.919693 766.991699,140.968994 766.312012,140.027374 z" opacity="1"/><path fill="#030303" stroke="none" d="M836.982544,124.291023 C839.999817,122.545006 843.291260,121.425835 845.096741,119.135361 C847.350220,116.276573 849.591492,115.351830 853.034729,115.533974 C858.140747,115.804070 863.271667,115.603874 868.461121,115.603874 C865.375610,133.683411 847.965759,145.688660 827.843689,144.007904 C809.958923,142.514023 795.239502,125.891472 795.185669,107.127289 C795.130249,87.815536 809.775879,71.647179 828.701172,70.127197 C847.751160,68.597198 865.224915,81.103035 868.418579,99.175194 C861.932129,99.175194 855.550476,99.250458 849.175110,99.085579 C848.321228,99.063492 847.324463,97.961533 846.688965,97.133232 C841.169556,89.939964 832.364380,87.437347 825.152771,91.092316 C817.768738,94.834663 814.246094,104.769096 817.156921,113.641602 C819.818726,121.755013 827.158142,125.816010 836.982544,124.291023 z" opacity="1"/><path fill="#090909" stroke="none" d="M1174.112305,158.414764 C1185.388794,152.191696 1187.326782,142.115021 1186.754395,129.856903 C1179.892578,139.457397 1170.840576,143.648605 1160.036011,143.646942 C1149.356445,143.645279 1140.241333,139.547531 1133.123047,131.497009 C1120.538330,117.264320 1121.383423,95.718452 1134.951172,82.177895 C1149.521851,67.636459 1168.481812,68.473885 1186.862549,84.856606 C1186.862549,80.919182 1186.862549,77.363991 1186.862549,73.604782 C1189.900757,73.604782 1192.483154,73.604782 1195.655151,73.604782 C1195.655151,75.610291 1195.664062,77.387489 1195.653687,79.164566 C1195.537354,99.153893 1196.048462,119.172920 1195.107666,139.123459 C1194.302368,156.198883 1182.034790,167.543503 1165.139771,168.895050 C1147.253906,170.325882 1131.985107,160.378143 1127.401733,144.105438 C1132.428833,143.478546 1136.190796,143.330612 1139.419434,149.134155 C1145.751587,160.515976 1159.903320,163.849686 1174.112305,158.414764 M1145.437744,131.218353 C1157.174438,138.306824 1169.969727,136.932449 1179.161499,127.595840 C1188.444946,118.165977 1189.906006,103.466866 1182.674072,92.255409 C1175.778931,81.566032 1162.780518,76.805191 1151.350342,81.130211 C1141.167236,84.983437 1135.111572,92.670464 1133.437988,103.284233 C1131.659424,114.563698 1135.720215,123.842606 1145.437744,131.218353 z" opacity="1"/><path fill="#0B0B0B" stroke="none" d="M1009.867615,66.413773 C1012.829529,77.320999 1009.699219,85.818054 1000.935608,92.476654 C1012.522156,98.320854 1017.457520,107.519913 1015.875244,120.008720 C1014.376221,131.839554 1005.847595,140.146942 991.915588,141.435013 C980.569763,142.483963 969.049622,141.648254 957.384888,141.648254 C957.384888,110.987366 957.384888,80.408165 957.384888,48.457157 C969.235046,49.238834 981.003418,49.368938 992.561523,50.993904 C1000.930664,52.170528 1006.780945,57.854053 1009.867615,66.413773 M966.618408,129.556366 C966.730530,130.833817 966.842651,132.111267 966.921509,133.009415 C975.070557,133.009415 982.896179,133.585297 990.600708,132.865021 C1000.444458,131.944763 1006.260925,125.742699 1006.878113,117.043404 C1007.507629,108.169312 1002.400391,100.763191 992.579529,98.978607 C984.234985,97.462303 975.553528,97.800674 966.618103,97.295662 C966.618103,108.358475 966.618103,118.451370 966.618408,129.556366 M977.464539,57.763611 C973.887268,57.763611 970.309937,57.763611 966.852173,57.763611 C966.852173,68.576263 966.852173,78.650024 966.852173,89.594215 C974.836670,89.076057 982.654724,89.171494 990.243896,87.900536 C997.320435,86.715439 1001.673279,80.388565 1001.669800,73.540901 C1001.666443,66.886971 997.480652,60.938995 990.741516,59.173801 C986.791504,58.139141 982.555176,58.197426 977.464539,57.763611 z" opacity="1"/><path fill="#040404" stroke="none" d="M897.861328,142.005463 C892.415222,142.005463 887.455017,142.005463 882.025818,142.005463 C882.025818,123.982674 882.025818,106.275276 882.025818,88.194946 C878.476685,88.194946 875.392212,88.194946 872.072021,88.194946 C872.072021,82.892876 872.072021,77.965904 872.072021,72.643890 C875.189514,72.643890 878.285156,72.643890 881.911316,72.643890 C881.911316,64.726891 881.911316,57.175686 881.911316,49.406254 C889.024841,49.406254 895.612000,49.406254 902.777954,49.406254 C902.777954,56.970623 902.777954,64.520210 902.777954,72.368073 C906.293213,72.368073 909.237061,72.368073 912.548340,72.368073 C912.548340,77.692909 912.548340,82.713364 912.548340,88.037659 C909.543396,88.037659 906.602600,88.037659 903.147095,88.037659 C903.147095,106.017670 903.147095,123.713943 903.147095,141.724930 C901.219788,141.837570 899.783508,141.921524 897.861328,142.005463 z" opacity="1"/><path fill="#070707" stroke="none" d="M374.999023,110.964966 C360.028839,110.964966 345.558350,110.964966 331.086853,110.964966 C331.200226,121.332664 339.179962,131.239929 349.832947,134.591690 C360.152832,137.838654 373.197021,134.117203 378.582428,125.023682 C381.665955,119.816986 385.099396,118.768387 390.209656,119.881645 C387.972260,134.169632 369.354736,145.561432 352.000702,143.168365 C332.614838,140.495102 319.431641,122.507492 322.033173,102.279594 C324.432983,83.620148 342.387329,69.993385 361.937500,71.993469 C379.847900,73.825806 394.478760,92.036964 392.769836,110.964966 C387.050995,110.964966 381.274872,110.964966 374.999023,110.964966 M347.394806,81.551384 C338.173981,85.709076 332.643646,92.639175 330.807831,102.862007 C348.872589,102.862007 366.319305,102.862007 383.784851,102.862007 C381.470367,85.730751 365.491028,76.084045 347.394806,81.551384 z" opacity="1"/><path fill="#030303" stroke="none" d="M512.722473,102.999870 C512.722473,92.685432 512.722473,82.871010 512.722473,72.725449 C519.264099,72.725449 525.493042,72.725449 531.958862,72.725449 C532.042175,74.593239 532.122925,76.401871 532.267334,79.638710 C536.530151,72.448067 542.360718,69.964088 549.711670,70.102119 C549.711670,77.146255 549.711670,83.917160 549.711670,90.845177 C548.257751,90.971443 546.948242,91.026093 545.656372,91.206879 C536.718567,92.457672 533.484558,96.029510 533.418396,105.086914 C533.329590,117.227936 533.396362,129.370102 533.396362,141.756104 C526.481689,141.756104 519.900757,141.756104 512.722473,141.756104 C512.722473,128.996506 512.722473,116.248192 512.722473,102.999870 z" opacity="1"/><path fill="#040404" stroke="none" d="M250.726562,119.999825 C250.726562,96.222710 250.726562,72.945580 250.726562,49.420181 C253.743286,49.420181 256.318085,49.420181 259.347687,49.420181 C259.347687,59.954243 259.347687,70.370026 259.347687,82.078888 C267.667328,72.258942 277.536041,70.230057 288.397186,72.540802 C301.442963,75.316345 309.896423,85.128571 310.661926,99.690720 C311.393311,113.603813 310.819672,127.585503 310.819672,141.770966 C308.021484,141.770966 305.412537,141.770966 302.383972,141.770966 C302.293640,140.653564 302.108063,139.397736 302.103577,138.141251 C302.059326,125.817780 302.303619,113.486870 301.954132,101.172592 C301.557922,87.211166 291.690613,78.640274 278.058136,79.846558 C268.578796,80.685349 260.956268,87.927574 260.016266,98.144669 C259.240814,106.573250 259.494324,115.100128 259.379272,123.584633 C259.298218,129.560760 259.363617,135.538864 259.363617,141.759552 C256.475067,141.759552 253.895569,141.759552 250.726562,141.759552 C250.726562,134.676285 250.726562,127.588043 250.726562,119.999825 z" opacity="1"/><path fill="#080808" stroke="none" d="M1114.459473,94.658981 C1122.181641,118.621109 1108.245117,140.680878 1084.006226,143.501099 C1065.272827,145.680740 1047.148315,130.274719 1045.274048,110.578331 C1043.501953,91.956596 1058.936646,73.322533 1077.287476,71.928970 C1093.945312,70.663971 1107.273315,78.731880 1114.459473,94.658981 M1097.778931,85.656601 C1096.969971,85.076317 1096.186157,84.456413 1095.348022,83.921799 C1085.079590,77.371765 1072.584351,78.383560 1063.565186,86.482025 C1054.096558,94.984070 1051.351074,108.806610 1056.871704,120.182465 C1062.260986,131.287750 1073.857666,137.407883 1085.567993,135.270172 C1096.656738,133.245941 1103.728516,126.431122 1106.845093,115.938187 C1110.262939,104.430130 1107.368042,94.285591 1097.778931,85.656601 z" opacity="1"/><path fill="#080808" stroke="none" d="M212.874786,57.813515 C206.085754,57.767429 199.786652,57.767429 193.155609,57.767429 C193.155609,54.879780 193.155609,52.308685 193.155609,49.446243 C210.012268,49.446243 226.922989,49.446243 244.198425,49.446243 C244.198425,51.951721 244.198425,54.520020 244.198425,57.565727 C237.442856,57.565727 230.701843,57.565727 223.443756,57.565727 C223.443756,85.871445 223.443756,113.714172 223.443756,141.782898 C220.163437,141.782898 217.397156,141.782898 214.019394,141.782898 C214.019394,140.064560 214.019394,138.302979 214.019394,136.541397 C214.019394,112.075989 214.032883,87.610565 213.991211,63.145233 C213.988205,61.383003 213.582932,59.621464 212.874786,57.813515 z" opacity="1"/><path fill="#010101" stroke="none" d="M1025.737183,129.991302 C1025.737183,102.880264 1025.737183,76.267067 1025.737183,49.417572 C1028.637451,49.417572 1031.071533,49.417572 1033.928955,49.417572 C1033.928955,80.087738 1033.928955,110.783974 1033.928955,141.739975 C1031.523804,141.739975 1028.932739,141.739975 1025.737183,141.739975 C1025.737183,138.008240 1025.737183,134.248688 1025.737183,129.991302 z" opacity="1"/><path fill="#DCEDFE" stroke="none" d="M172.999832,71.189178 C173.001038,90.756210 173.002243,110.323242 172.574860,130.389343 C170.426392,130.851349 168.706497,130.814316 166.987381,130.325043 C166.990326,110.318764 166.992508,90.764702 167.421783,71.167862 C169.565887,71.146446 171.282852,71.167809 172.999832,71.189178 z" opacity="1"/><path fill="#DCEDFE" stroke="none" d="M160.072937,153.931549 C148.278748,160.572098 136.479630,167.203918 124.692581,173.857147 C119.370766,176.861069 114.073029,179.907669 108.234253,182.700470 C106.774506,180.998352 105.844887,179.530670 105.239349,177.916077 C107.282669,176.789658 109.000526,175.807755 110.721336,174.831024 C126.061279,166.124207 141.401764,157.418304 156.942642,148.946991 C158.119781,150.765091 159.096359,152.348312 160.072937,153.931549 z" opacity="1"/><path fill="#9BD930" stroke="none" d="M160.388428,154.084564 C159.096359,152.348312 158.119781,150.765091 156.937805,148.538116 C155.523071,139.242111 158.329102,134.558075 166.986618,130.777283 C168.706497,130.814316 170.426392,130.851349 172.574066,130.845642 C173.534149,131.059723 174.066467,131.316574 174.765625,132.139771 C167.962433,143.435089 168.081985,146.040222 176.001328,155.998291 C170.445847,159.376144 165.452225,157.872437 160.388428,154.084564 z" opacity="1"/><path fill="#FFB846" stroke="none" d="M173.263855,71.060112 C171.282852,71.167809 169.565887,71.146446 167.094452,71.019135 C157.840408,67.074570 155.626053,62.870209 157.116791,52.780083 C157.905624,51.373669 158.505310,50.229305 159.105011,49.084942 C163.880981,44.786678 169.112518,42.547935 175.596008,46.028740 C168.591019,54.409531 168.257050,58.482632 173.929352,67.421455 C174.434433,68.217392 174.673080,69.182396 175.035461,70.068886 C174.532928,70.356277 174.030411,70.643661 173.263855,71.060112 z" opacity="1"/><path fill="#DCEDFE" stroke="none" d="M158.942780,48.773430 C158.505310,50.229305 157.905624,51.373669 156.765533,52.729401 C154.320541,51.963406 152.375534,51.056919 150.517746,49.997486 C135.323898,41.332947 120.146309,32.639889 105.089989,23.656685 C106.158081,21.894211 107.099968,20.430550 108.041855,18.966892 C119.929405,25.696648 131.849625,32.369629 143.689270,39.182625 C148.805466,42.126686 153.755203,45.360001 158.942780,48.773430 z" opacity="1"/><path fill="#A4E832" stroke="none" d="M176.342712,155.947998 C168.081985,146.040222 167.962433,143.435089 174.971405,132.351135 C185.540421,137.030777 186.362259,148.766556 176.342712,155.947998 z" opacity="1"/><path fill="#FFC468" stroke="none" d="M175.380554,70.032394 C174.673080,69.182396 174.434433,68.217392 173.929352,67.421455 C168.257050,58.482632 168.591019,54.409531 175.859741,46.290009 C185.981323,51.707993 185.846161,63.070107 175.380554,70.032394 z" opacity="1"/><path fill="#62BAFE" stroke="none" d="M104.915268,178.063004 C105.844887,179.530670 106.774506,180.998352 107.884644,182.741150 C108.488098,189.658447 108.613136,196.168213 100.515656,199.198822 C100.039780,198.728409 100.087189,198.087601 99.789902,197.781265 C92.830009,190.609512 94.155121,183.560883 100.424210,176.189575 C102.180656,176.571686 103.547958,177.317337 104.915268,178.063004 z" opacity="1"/><path fill="#FF5897" stroke="none" d="M108.035645,18.518717 C107.099968,20.430550 106.158081,21.894211 104.796005,23.793631 C103.285728,24.896057 102.195648,25.562721 101.105560,26.229389 C100.952271,25.935146 100.865723,25.568287 100.636009,25.357201 C93.538963,18.835426 92.644341,11.758087 100.977142,3.109486 C107.870956,5.883057 108.819260,11.584930 108.035645,18.518717 z" opacity="1"/><path fill="#DAECFE" stroke="none" d="M85.036713,178.021637 C84.125633,179.512329 83.214561,181.003021 82.100906,182.755646 C67.807961,175.044159 53.718845,167.068527 39.626225,159.099106 C36.609245,157.393005 33.579563,155.709381 30.338001,153.661758 C31.100594,151.863129 32.080914,150.418152 33.414612,149.014130 C35.672363,150.032394 37.616756,150.939499 39.474815,151.998138 C54.671207,160.656677 69.851517,169.343445 85.036713,178.021637 z" opacity="1"/><path fill="#DDEBFC" stroke="none" d="M81.573540,19.016548 C82.866478,20.435247 83.812645,21.902960 84.561554,23.818233 C75.629410,29.265636 66.928017,34.325184 58.149975,39.248070 C49.824390,43.917217 41.418522,48.443218 32.850769,52.770844 C31.711987,51.040813 30.770399,49.572105 29.828812,48.103394 C41.645771,41.459091 53.468681,34.825333 65.277008,28.165724 C70.608551,25.158859 75.911072,22.100536 81.573540,19.016548 z" opacity="1"/><path fill="#DAECFE" stroke="none" d="M16.970699,130.833176 C16.976288,111.251778 16.981878,91.670387 17.415245,71.589645 C19.571281,71.125061 21.299543,71.159821 23.023975,71.648636 C23.025963,91.670013 23.031780,111.237335 22.606220,130.847565 C20.440126,130.871384 18.705414,130.852280 16.970699,130.833176 z" opacity="1"/><path fill="#7F707D" stroke="none" d="M23.027802,71.194580 C21.299543,71.159821 19.571281,71.125061 17.412769,71.131866 C9.561502,67.894043 6.237152,63.419785 6.535843,57.113190 C6.985540,47.618240 15.650993,42.271168 25.629997,45.973194 C18.895548,53.293758 18.210052,59.923393 24.162415,66.874359 C24.815248,67.636719 24.762587,69.003220 24.820194,70.279938 C24.078100,70.711761 23.552950,70.953171 23.027802,71.194580 z" opacity="1"/><path fill="#7265BA" stroke="none" d="M16.647284,130.979202 C18.705414,130.852280 20.440126,130.871384 22.866096,130.974762 C24.048748,131.346008 24.540144,131.632980 25.021973,132.296967 C24.693668,133.575607 24.558586,134.606796 24.027983,135.358994 C18.283985,143.501785 18.551723,146.454971 26.042912,156.070770 C18.635847,159.506149 10.853134,156.892990 7.734981,149.923615 C4.365119,142.391647 7.705645,135.080276 16.647284,130.979202 z" opacity="1"/><path fill="#958491" stroke="none" d="M25.037142,70.089516 C24.762587,69.003220 24.815248,67.636719 24.162415,66.874359 C18.210052,59.923393 18.895548,53.293758 25.896603,46.234253 C27.123991,46.549408 28.198839,47.175297 29.551250,47.952293 C30.770399,49.572105 31.711987,51.040813 32.844849,53.219398 C33.748508,63.060913 31.931339,66.732117 25.037142,70.089516 z" opacity="1"/><path fill="#857BC2" stroke="none" d="M26.357981,156.030075 C18.551723,146.454971 18.283985,143.501785 24.027983,135.358994 C24.558586,134.606796 24.693668,133.575607 25.369583,132.330139 C32.850323,135.628464 34.003685,141.848373 33.061241,148.973190 C32.080914,150.418152 31.100594,151.863129 29.975536,153.600708 C28.778215,154.591995 27.725632,155.290680 26.357981,156.030075 z" opacity="1"/><path fill="#FEFEFD" stroke="none" d="M33.414612,149.014130 C34.003685,141.848373 32.850323,135.628464 25.379150,131.953140 C24.540144,131.632980 24.048748,131.346008 23.297476,130.931854 C23.031780,111.237335 23.025963,91.670013 23.023973,71.648636 C23.552950,70.953171 24.078100,70.711761 24.820194,70.279938 C31.931339,66.732117 33.748508,63.060913 33.042038,53.480717 C41.418522,48.443218 49.824390,43.917217 58.149975,39.248070 C66.928017,34.325184 75.629410,29.265636 84.679581,24.120823 C89.696182,27.652813 94.731682,29.455761 100.838074,26.491375 C102.195648,25.562721 103.285728,24.896057 104.669800,24.092445 C120.146309,32.639889 135.323898,41.332947 150.517746,49.997486 C152.375534,51.056919 154.320541,51.963406 156.576385,52.991447 C155.626053,62.870209 157.840408,67.074570 166.667328,71.061920 C166.992508,90.764702 166.990326,110.318764 166.987381,130.325043 C158.329102,134.558075 155.523071,139.242111 156.737244,148.303253 C141.401764,157.418304 126.061279,166.124207 110.721336,174.831024 C109.000526,175.807755 107.282669,176.789658 105.239349,177.916077 C103.547958,177.317337 102.180656,176.571686 100.468468,175.823914 C95.595985,172.826797 91.651192,173.339691 85.346741,177.862213 C69.851517,169.343445 54.671207,160.656677 39.474815,151.998138 C37.616756,150.939499 35.672363,150.032394 33.414612,149.014130 M78.823372,55.801365 C74.434563,58.407303 70.045746,61.013241 64.964973,63.759735 C62.258869,65.283920 59.439449,66.640686 56.876129,68.375809 C53.856667,70.419693 51.059078,72.791336 47.841827,75.909149 C47.787811,91.997635 47.612270,108.087769 47.829571,124.172592 C47.857552,126.243935 49.442776,128.925369 51.146809,130.207947 C54.417530,132.669724 58.290974,134.330719 62.329277,136.839050 C70.374069,141.489090 78.383759,146.201584 86.483452,150.753952 C89.174911,152.266663 92.097412,153.368286 95.624626,154.781052 C96.408020,154.520004 97.262268,154.382446 97.964325,153.979645 C111.532379,146.194946 125.172508,138.527084 138.535843,130.404221 C140.454605,129.237900 142.002106,125.866676 142.052505,123.480598 C142.368912,108.500282 142.244385,93.509819 142.165619,78.523232 C142.157349,76.951195 141.496231,75.382591 140.837860,73.207153 C130.108231,67.059578 119.378609,60.911995 108.302666,54.135086 C104.922852,52.116577 101.672874,49.809479 98.106720,48.205185 C96.404900,47.439594 93.760368,47.311981 92.137917,48.108105 C87.738678,50.266769 83.657608,53.073853 78.823372,55.801365 z" opacity="1"/><path fill="#FCFCFC" stroke="none" d="M663.703491,91.263611 C677.356934,86.434875 689.196472,93.787231 689.308655,106.763481 C689.385742,115.678993 684.048584,122.492851 675.487183,124.409149 C667.360352,126.228172 659.327209,122.423935 655.922302,115.143829 C652.168884,107.118546 654.324890,98.080040 661.265686,92.808884 C661.924744,92.308334 662.650635,91.895668 663.703491,91.263611 z" opacity="1"/><path fill="#FBFBFB" stroke="none" d="M459.042816,76.107651 C459.042816,73.978828 459.042816,72.334885 459.042816,69.684608 C464.972809,70.149323 470.731171,70.169815 476.315277,71.166611 C481.304108,72.057129 483.548706,75.755997 483.476562,81.092148 C483.409729,86.034721 481.653473,90.184273 476.368225,91.050621 C470.870483,91.951820 465.235779,92.017540 459.042816,92.496399 C459.042816,86.760078 459.042816,81.676300 459.042816,76.107651 z" opacity="1"/><path fill="#FBFBFB" stroke="none" d="M600.376404,93.529037 C611.371033,103.341270 606.823181,120.506020 594.538391,124.038132 C587.007324,126.203476 579.324341,122.889999 575.483154,115.887901 C571.529053,108.680054 573.031433,99.614174 579.119019,93.947258 C584.980347,88.490974 592.681396,88.245476 600.376404,93.529037 z" opacity="1"/><path fill="#FDFDFD" stroke="none" d="M1145.119873,131.034058 C1135.720215,123.842606 1131.659424,114.563698 1133.437988,103.284233 C1135.111572,92.670464 1141.167236,84.983437 1151.350342,81.130211 C1162.780518,76.805191 1175.778931,81.566032 1182.674072,92.255409 C1189.906006,103.466866 1188.444946,118.165977 1179.161499,127.595840 C1169.969727,136.932449 1157.174438,138.306824 1145.119873,131.034058 z" opacity="1"/><path fill="#FCFCFC" stroke="none" d="M966.618286,129.050323 C966.618103,118.451370 966.618103,108.358475 966.618103,97.295662 C975.553528,97.800674 984.234985,97.462303 992.579529,98.978607 C1002.400391,100.763191 1007.507629,108.169312 1006.878113,117.043404 C1006.260925,125.742699 1000.444458,131.944763 990.600708,132.865021 C982.896179,133.585297 975.070557,133.009415 966.921509,133.009415 C966.842651,132.111267 966.730530,130.833817 966.618286,129.050323 z" opacity="1"/><path fill="#FDFDFD" stroke="none" d="M977.956055,57.763836 C982.555176,58.197426 986.791504,58.139141 990.741516,59.173801 C997.480652,60.938995 1001.666443,66.886971 1001.669800,73.540901 C1001.673279,80.388565 997.320435,86.715439 990.243896,87.900536 C982.654724,89.171494 974.836670,89.076057 966.852173,89.594215 C966.852173,78.650024 966.852173,68.576263 966.852173,57.763611 C970.309937,57.763611 973.887268,57.763611 977.956055,57.763836 z" opacity="1"/><path fill="#FDFDFD" stroke="none" d="M347.752197,81.372498 C365.491028,76.084045 381.470367,85.730751 383.784851,102.862007 C366.319305,102.862007 348.872589,102.862007 330.807831,102.862007 C332.643646,92.639175 338.173981,85.709076 347.752197,81.372498 z" opacity="1"/><path fill="#FDFDFD" stroke="none" d="M1098.062988,85.879547 C1107.368042,94.285591 1110.262939,104.430130 1106.845093,115.938187 C1103.728516,126.431122 1096.656738,133.245941 1085.567993,135.270172 C1073.857666,137.407883 1062.260986,131.287750 1056.871704,120.182465 C1051.351074,108.806610 1054.096558,94.984070 1063.565186,86.482025 C1072.584351,78.383560 1085.079590,77.371765 1095.348022,83.921799 C1096.186157,84.456413 1096.969971,85.076317 1098.062988,85.879547 z" opacity="1"/><path fill="#E39B75" stroke="none" d="M141.138016,73.812393 C141.496231,75.382591 142.157349,76.951195 142.165619,78.523232 C142.244385,93.509819 142.368912,108.500282 142.052505,123.480598 C142.002106,125.866676 140.454605,129.237900 138.535843,130.404221 C125.172508,138.527084 111.532379,146.194946 97.964325,153.979645 C97.262268,154.382446 96.408020,154.520004 95.289436,154.276611 C94.975395,135.849121 94.996544,117.926094 95.390167,99.998306 C101.191742,96.991875 106.620842,93.990196 112.332306,91.292496 C112.614685,98.276787 112.614685,104.957085 112.614685,112.986938 C116.203949,111.178024 118.265282,109.921616 120.481529,109.066956 C125.270325,107.220238 126.460869,103.782417 126.080612,98.930984 C125.668091,93.668015 125.981674,88.348129 126.295776,82.905579 C131.454636,79.776184 136.296326,76.794289 141.138016,73.812393 z" opacity="1"/><path fill="#DA7F4B" stroke="none" d="M95.017693,100.003067 C94.996544,117.926094 94.975395,135.849121 94.934265,154.214996 C92.097412,153.368286 89.174911,152.266663 86.483452,150.753952 C78.383759,146.201584 70.374069,141.489090 62.146797,136.088806 C61.976379,119.077438 62.036762,102.815994 61.933655,86.555588 C61.921989,84.715942 61.569817,81.980072 60.376526,81.212143 C56.559010,78.755409 52.271416,77.029121 48.165283,75.020866 C51.059078,72.791336 53.856667,70.419693 56.876129,68.375809 C59.439449,66.640686 62.258869,65.283920 65.649918,63.874466 C70.649231,66.606964 74.963600,69.224731 78.898460,71.917999 C73.236427,75.018402 67.953903,78.043304 61.692268,81.628868 C66.436409,84.441261 69.505539,86.395287 72.696243,88.125084 C80.105530,92.141953 87.573502,96.050575 95.017693,100.003067 z" opacity="1"/><path fill="#CB6D37" stroke="none" d="M48.003555,75.465012 C52.271416,77.029121 56.559010,78.755409 60.376526,81.212143 C61.569817,81.980072 61.921989,84.715942 61.933655,86.555588 C62.036762,102.815994 61.976379,119.077438 61.939346,135.831238 C58.290974,134.330719 54.417530,132.669724 51.146809,130.207947 C49.442776,128.925369 47.857552,126.243935 47.829571,124.172592 C47.612270,108.087769 47.787811,91.997635 48.003555,75.465012 z" opacity="1"/><path fill="#DC895A" stroke="none" d="M140.987946,73.509773 C136.296326,76.794289 131.454636,79.776184 126.064331,82.885529 C125.515724,83.012970 125.051201,82.999939 124.842148,82.728783 C114.091034,76.260246 103.548965,70.062866 93.224274,63.615479 C98.510757,60.498451 103.579872,57.631432 108.648987,54.764412 C119.378609,60.911995 130.108231,67.059578 140.987946,73.509773 z" opacity="1"/><path fill="#D9814F" stroke="none" d="M108.475830,54.449749 C103.579872,57.631432 98.510757,60.498451 92.963219,63.546959 C91.995544,63.507057 91.506287,63.285667 90.724693,62.881561 C86.771690,60.340508 83.111038,57.982166 79.450378,55.623821 C83.657608,53.073853 87.738678,50.266769 92.137917,48.108105 C93.760368,47.311981 96.404900,47.439594 98.106720,48.205185 C101.672874,49.809479 104.922852,52.116577 108.475830,54.449749 z" opacity="1"/><path fill="#6A6069" stroke="none" d="M79.136871,55.712593 C83.111038,57.982166 86.771690,60.340508 90.666199,63.216476 C89.220337,65.013191 87.497360,66.240059 85.872887,67.585831 C84.196030,68.974998 82.614967,70.479805 80.704826,71.926773 C80.037758,71.893852 79.657867,71.868179 79.277969,71.842499 C74.963600,69.224731 70.649231,66.606964 65.995895,63.804184 C70.045746,61.013241 74.434563,58.407303 79.136871,55.712593 z" opacity="1"/><path fill="#DC8758" stroke="none" d="M78.898460,71.917999 C79.657867,71.868179 80.037758,71.893852 80.899277,72.210175 C91.594215,78.352776 101.807541,84.204735 112.032425,90.289520 C112.043991,90.522339 112.049934,90.988518 112.049934,90.988518 C106.620842,93.990196 101.191742,96.991875 95.390167,99.998306 C87.573502,96.050575 80.105530,92.141953 72.696243,88.125084 C69.505539,86.395287 66.436409,84.441261 61.692268,81.628868 C67.953903,78.043304 73.236427,75.018402 78.898460,71.917999 z" opacity="1"/><path fill="#958491" stroke="none" d="M112.332306,91.292496 C112.049934,90.988518 112.043991,90.522339 112.406067,90.269882 C116.862503,87.678261 120.956848,85.339096 125.051201,82.999939 C125.051201,82.999939 125.515724,83.012970 125.747177,83.033020 C125.981674,88.348129 125.668091,93.668015 126.080612,98.930984 C126.460869,103.782417 125.270325,107.220238 120.481529,109.066956 C118.265282,109.921616 116.203949,111.178024 112.614685,112.986938 C112.614685,104.957085 112.614685,98.276787 112.332306,91.292496 z" opacity="1"/><path fill="#7D6C78" stroke="none" d="M124.842148,82.728783 C120.956848,85.339096 116.862503,87.678261 112.394508,90.037056 C101.807541,84.204735 91.594215,78.352776 81.186447,72.217422 C82.614967,70.479805 84.196030,68.974998 85.872887,67.585831 C87.497360,66.240059 89.220337,65.013191 90.958542,63.399193 C91.506287,63.285667 91.995544,63.507057 92.745850,63.796967 C103.548965,70.062866 114.091034,76.260246 124.842148,82.728783 z" opacity="1"/></svg>